<svg xmlns="http://www.w3.org/2000/svg" width="24" height="24" viewBox="0 0 24 24">
  <g id="Component_437_1" data-name="Component 437 – 1" opacity="0.6">
    <g id="Group_9787" data-name="Group 9787" transform="translate(-11 -243)">
      <g id="MDI_chart-pie" data-name="MDI / chart-pie" transform="translate(11 243)">
        <g id="Boundary" stroke="rgba(0,0,0,0)" stroke-width="1" opacity="0">
          <rect width="24" height="24" stroke="none"/>
          <rect x="0.5" y="0.5" width="23" height="23" fill="none"/>
        </g>
        <g id="Group_9780" data-name="Group 9780" transform="translate(4 4)">
          <path id="Subtraction_40" data-name="Subtraction 40" d="M8447.019-6997a8.018,8.018,0,0,1-8.019-8,7.975,7.975,0,0,1,.912-3.7,8.125,8.125,0,0,1,2.428-2.786l1.762,3.045a4.49,4.49,0,0,0-1.6,3.442,4.506,4.506,0,0,0,4.5,4.5,4.478,4.478,0,0,0,1.542-.271l1.772,3.06A7.957,7.957,0,0,1,8447.019-6997Zm4.684-1.511h0l-1.775-3.068a4.51,4.51,0,0,0,1.5-2.62H8455a8,8,0,0,1-3.3,5.688Zm3.3-7.289h-3.569a4.492,4.492,0,0,0-4.43-3.7,4.488,4.488,0,0,0-1.509.259l-1.766-3.05a8,8,0,0,1,3.293-.711,8.017,8.017,0,0,1,5.4,2.084A7.977,7.977,0,0,1,8455-7005.8Z" transform="translate(-8439 7013)" stroke="rgba(0,0,0,0)" stroke-width="1"/>
        </g>
      </g>
    </g>
  </g>
</svg>
