<svg xmlns="http://www.w3.org/2000/svg" width="24" height="24" viewBox="0 0 24 24">
  <g id="speedometer" opacity="0.6">
    <g id="Boundary" stroke="rgba(0,0,0,0)" stroke-width="1" opacity="0">
      <rect width="24" height="24" stroke="none"/>
      <rect x="0.5" y="0.5" width="23" height="23" fill="none"/>
    </g>
    <path id="Path_speedometer" data-name="Path / speedometer" d="M10.058,13.475A2.423,2.423,0,0,1,8.849,8.955l7.824-4.529-4.456,7.72a2.422,2.422,0,0,1-2.16,1.33M10.058,3a8.2,8.2,0,0,1,4,1.064l-1.692.975A6.446,6.446,0,0,0,5.5,15.611h.008a.8.8,0,0,1,0,1.136.82.82,0,0,1-1.144.008h0A8.057,8.057,0,0,1,10.058,3m8.058,8.058a8.033,8.033,0,0,1-2.361,5.7h0a.806.806,0,0,1-1.136-1.144h0A6.405,6.405,0,0,0,16.5,11.058a6.5,6.5,0,0,0-.435-2.337l.975-1.692A8.262,8.262,0,0,1,18.116,11.058Z" transform="translate(1.942 2.008)"/>
  </g>
</svg>
